<svg width="16" height="17" viewBox="0 0 16 17" fill="none" xmlns="http://www.w3.org/2000/svg">
<path d="M8.93999 8.4998L11.8067 5.6398C11.9322 5.51426 12.0027 5.344 12.0027 5.16646C12.0027 4.98893 11.9322 4.81867 11.8067 4.69313C11.6811 4.5676 11.5109 4.49707 11.3333 4.49707C11.1558 4.49707 10.9855 4.5676 10.86 4.69313L7.99999 7.5598L5.13999 4.69313C5.01445 4.5676 4.84419 4.49707 4.66666 4.49707C4.48912 4.49707 4.31886 4.5676 4.19332 4.69313C4.06779 4.81867 3.99726 4.98893 3.99726 5.16646C3.99726 5.344 4.06779 5.51426 4.19332 5.6398L7.05999 8.4998L4.19332 11.3598C4.13084 11.4218 4.08124 11.4955 4.0474 11.5767C4.01355 11.658 3.99612 11.7451 3.99612 11.8331C3.99612 11.9211 4.01355 12.0083 4.0474 12.0895C4.08124 12.1708 4.13084 12.2445 4.19332 12.3065C4.2553 12.3689 4.32903 12.4185 4.41027 12.4524C4.49151 12.4862 4.57865 12.5037 4.66666 12.5037C4.75466 12.5037 4.8418 12.4862 4.92304 12.4524C5.00428 12.4185 5.07801 12.3689 5.13999 12.3065L7.99999 9.4398L10.86 12.3065C10.922 12.3689 10.9957 12.4185 11.0769 12.4524C11.1582 12.4862 11.2453 12.5037 11.3333 12.5037C11.4213 12.5037 11.5085 12.4862 11.5897 12.4524C11.6709 12.4185 11.7447 12.3689 11.8067 12.3065C11.8691 12.2445 11.9187 12.1708 11.9526 12.0895C11.9864 12.0083 12.0039 11.9211 12.0039 11.8331C12.0039 11.7451 11.9864 11.658 11.9526 11.5767C11.9187 11.4955 11.8691 11.4218 11.8067 11.3598L8.93999 8.4998Z" fill="#141316"/>
</svg>
