<svg width="40" height="40" viewBox="0 0 40 40" fill="none" xmlns="http://www.w3.org/2000/svg">
<rect width="40" height="40" rx="20" fill="#468F69"/>
<path opacity="0.4" d="M20 28.3337C24.6024 28.3337 28.3334 24.6027 28.3334 20.0003C28.3334 15.398 24.6024 11.667 20 11.667C15.3976 11.667 11.6667 15.398 11.6667 20.0003C11.6667 24.6027 15.3976 28.3337 20 28.3337Z" fill="white"/>
<path d="M20.8833 19.9998L22.8 18.0831C23.0417 17.8415 23.0417 17.4415 22.8 17.1998C22.5583 16.9581 22.1583 16.9581 21.9167 17.1998L20 19.1165L18.0833 17.1998C17.8417 16.9581 17.4417 16.9581 17.2 17.1998C16.9583 17.4415 16.9583 17.8415 17.2 18.0831L19.1167 19.9998L17.2 21.9165C16.9583 22.1581 16.9583 22.5581 17.2 22.7998C17.325 22.9248 17.4833 22.9831 17.6417 22.9831C17.8 22.9831 17.9583 22.9248 18.0833 22.7998L20 20.8831L21.9167 22.7998C22.0417 22.9248 22.2 22.9831 22.3583 22.9831C22.5167 22.9831 22.675 22.9248 22.8 22.7998C23.0417 22.5581 23.0417 22.1581 22.8 21.9165L20.8833 19.9998Z" fill="white"/>
</svg>
