<svg width="40" height="40" viewBox="0 0 40 40" fill="none" xmlns="http://www.w3.org/2000/svg">
<rect width="40" height="40" rx="20" fill="#468F69"/>
<path opacity="0.4" d="M27.5 28.333H12.5C12.1583 28.333 11.875 28.0497 11.875 27.708C11.875 27.3663 12.1583 27.083 12.5 27.083H27.5C27.8417 27.083 28.125 27.3663 28.125 27.708C28.125 28.0497 27.8417 28.333 27.5 28.333Z" fill="white"/>
<path opacity="0.4" d="M25.8497 12.9C24.233 11.2834 22.6497 11.2417 20.9913 12.9L19.983 13.9084C19.8997 13.9917 19.8663 14.1251 19.8997 14.2417C20.533 16.4501 22.2997 18.2167 24.508 18.85C24.5413 18.8584 24.5747 18.8667 24.608 18.8667C24.6997 18.8667 24.783 18.8334 24.8497 18.7667L25.8497 17.7584C26.6747 16.9417 27.0747 16.1501 27.0747 15.35C27.083 14.525 26.683 13.725 25.8497 12.9Z" fill="white"/>
<path d="M23.0086 19.6077C22.767 19.491 22.5336 19.3743 22.3086 19.241C22.1253 19.1327 21.9503 19.016 21.7753 18.891C21.6336 18.7993 21.467 18.666 21.3086 18.5327C21.292 18.5243 21.2336 18.4743 21.167 18.4077C20.892 18.1743 20.5836 17.8743 20.3086 17.541C20.2836 17.5243 20.242 17.466 20.1836 17.391C20.1003 17.291 19.9586 17.1243 19.8336 16.9327C19.7336 16.8077 19.617 16.6243 19.5086 16.441C19.3753 16.216 19.2586 15.991 19.142 15.7577C19.0253 15.5077 18.9336 15.266 18.8503 15.041L13.617 20.2743C13.5086 20.3827 13.4086 20.591 13.3836 20.7327L12.9336 23.9243C12.8503 24.491 13.0086 25.0243 13.3586 25.3827C13.6586 25.6743 14.0753 25.8327 14.5253 25.8327C14.6253 25.8327 14.7253 25.8243 14.8253 25.8077L18.0253 25.3577C18.1753 25.3327 18.3836 25.2327 18.4836 25.1243L23.717 19.891C23.4836 19.8077 23.2586 19.716 23.0086 19.6077Z" fill="white"/>
</svg>
