<svg width="20" height="20" viewBox="0 0 20 20" fill="none" xmlns="http://www.w3.org/2000/svg">
<path d="M14.7167 18.8923C14.275 18.8923 13.7083 18.7506 13 18.3339L10.5083 16.8589C10.25 16.7089 9.75 16.7089 9.5 16.8589L7 18.3339C5.525 19.2089 4.65833 18.8589 4.26666 18.5756C3.88333 18.2923 3.28333 17.5673 3.675 15.9006L4.26666 13.3423C4.33333 13.0756 4.2 12.6173 4 12.4173L1.93333 10.3506C0.899996 9.31725 0.98333 8.43392 1.125 8.00059C1.26666 7.56725 1.71666 6.80059 3.15 6.55892L5.80833 6.11725C6.05833 6.07559 6.41666 5.80892 6.525 5.58392L8 2.64225C8.66666 1.30059 9.54166 1.10059 10 1.10059C10.4583 1.10059 11.3333 1.30059 12 2.64225L13.4667 5.57559C13.5833 5.80059 13.9417 6.06725 14.1917 6.10892L16.85 6.55059C18.2917 6.79225 18.7417 7.55892 18.875 7.99225C19.0083 8.42559 19.0917 9.30892 18.0667 10.3423L16 12.4173C15.8 12.6173 15.675 13.0673 15.7333 13.3423L16.325 15.9006C16.7083 17.5673 16.1167 18.2923 15.7333 18.5756C15.525 18.7256 15.1917 18.8923 14.7167 18.8923ZM10 15.4923C10.4083 15.4923 10.8167 15.5923 11.1417 15.7839L13.6333 17.2589C14.3583 17.6923 14.8167 17.6923 14.9917 17.5673C15.1667 17.4423 15.2917 17.0006 15.1083 16.1839L14.5167 13.6256C14.3583 12.9339 14.6167 12.0423 15.1167 11.5339L17.1833 9.46725C17.5917 9.05892 17.775 8.65892 17.6917 8.38392C17.6 8.10892 17.2167 7.88392 16.65 7.79225L13.9917 7.35059C13.35 7.24225 12.65 6.72559 12.3583 6.14225L10.8917 3.20892C10.625 2.67559 10.2917 2.35892 10 2.35892C9.70833 2.35892 9.375 2.67559 9.11666 3.20892L7.64166 6.14225C7.35 6.72559 6.65 7.24225 6.00833 7.35059L3.35833 7.79225C2.79166 7.88392 2.40833 8.10892 2.31666 8.38392C2.225 8.65892 2.41666 9.06725 2.825 9.46725L4.89166 11.5339C5.39166 12.0339 5.65 12.9339 5.49166 13.6256L4.9 16.1839C4.70833 17.0089 4.84166 17.4423 5.01666 17.5673C5.19166 17.6923 5.64166 17.6839 6.375 17.2589L8.86666 15.7839C9.18333 15.5923 9.59166 15.4923 10 15.4923Z" fill="#2563EB"/>
</svg>
