<svg width="20" height="20" viewBox="0 0 20 20" fill="none" xmlns="http://www.w3.org/2000/svg">
<path d="M10.86 3.07755C10.5396 2.30748 9.44844 2.30748 9.12806 3.07755L7.64729 6.63682C7.5131 6.95936 7.21068 7.18059 6.86256 7.21085L3.35796 7.51548C2.55376 7.58538 2.20772 8.57081 2.79173 9.12794L5.45381 11.6675C5.6952 11.8978 5.79604 12.2389 5.71863 12.5634L4.81707 16.3419C4.62351 17.1532 5.50629 17.7944 6.21823 17.3596L9.50515 15.3525C9.80529 15.1693 10.1828 15.1693 10.4829 15.3525L13.7698 17.3596C14.4818 17.7944 15.3645 17.1532 15.171 16.3419L14.2697 12.5646C14.1921 12.2395 14.2935 11.8977 14.5359 11.6674L17.2069 9.12921C17.7927 8.57255 17.447 7.58525 16.6418 7.51547L13.1257 7.21072C12.7775 7.18054 12.4749 6.95929 12.3407 6.63667L10.86 3.07755Z" fill="#FFBE4C"/>
</svg>
