<svg width="40" height="40" viewBox="0 0 40 40" fill="none" xmlns="http://www.w3.org/2000/svg">
<rect width="40" height="40" rx="20" fill="#468F69"/>
<path opacity="0.4" d="M27.1834 17.0413C26.3084 13.1913 22.95 11.458 20 11.458C20 11.458 20 11.458 19.9917 11.458C17.05 11.458 13.6834 13.183 12.8084 17.033C11.8334 21.333 14.4667 24.9747 16.85 27.2663C17.7334 28.1163 18.8667 28.5413 20 28.5413C21.1334 28.5413 22.2667 28.1163 23.1417 27.2663C25.525 24.9747 28.1584 21.3413 27.1834 17.0413Z" fill="white"/>
<path d="M20 21.2168C21.4497 21.2168 22.625 20.0415 22.625 18.5918C22.625 17.142 21.4497 15.9668 20 15.9668C18.5503 15.9668 17.375 17.142 17.375 18.5918C17.375 20.0415 18.5503 21.2168 20 21.2168Z" fill="white"/>
</svg>
